<?xml version="1.0" encoding="UTF-8" standalone="no"?><svg width="106" height="133" viewBox="0 0 106 133" fill="none" xmlns="http://www.w3.org/2000/svg">
<path d="M65.7106 0.787476C58.7395 0.787476 52.0538 3.55676 47.1245 8.48611C42.1951 13.4155 39.4258 20.1011 39.4258 27.0723H65.7106V0.787476Z" fill="url(#paint0_linear_18_69)"/>
<path d="M105.137 53.3571C105.137 46.3859 102.367 39.7002 97.4379 34.7709C92.5085 29.8415 85.8229 27.0723 78.8517 27.0723H26.2822C21.7533 27.0727 17.3013 28.2433 13.358 30.4706C9.41464 32.6979 6.11368 35.9063 3.77517 39.7848C1.43665 43.6632 0.139919 48.0801 0.0107028 52.6071C-0.118514 57.1342 0.924168 61.6178 3.03765 65.6233V65.6233L29.1735 117.912C31.3793 122.218 34.7304 125.831 38.858 128.354C42.9855 130.877 47.7293 132.212 52.567 132.212C57.4046 132.212 62.1484 130.877 66.2759 128.354C70.4035 125.831 73.7546 122.218 75.9604 117.912L102.105 65.6233C104.103 61.8436 105.143 57.6321 105.137 53.3571Z" fill="url(#paint1_linear_18_69)"/>
<path d="M52.567 132.211C67.0836 132.211 78.8517 120.443 78.8517 105.927C78.8517 91.4099 67.0836 79.6418 52.567 79.6418C38.0503 79.6418 26.2822 91.4099 26.2822 105.927C26.2822 120.443 38.0503 132.211 52.567 132.211Z" fill="url(#paint2_linear_18_69)"/>
<defs>
<linearGradient id="paint0_linear_18_69" x1="52.5682" y1="2.10171" x2="52.5682" y2="27.7907" gradientUnits="userSpaceOnUse">
<stop stop-color="#8CCA6A"/>
<stop offset="1" stop-color="#36A866"/>
</linearGradient>
<linearGradient id="paint1_linear_18_69" x1="52.567" y1="27.0723" x2="52.567" y2="132.211" gradientUnits="userSpaceOnUse">
<stop stop-color="#FF727F"/>
<stop offset="1" stop-color="#FF2A30"/>
</linearGradient>
<linearGradient id="paint2_linear_18_69" x1="52.567" y1="79.7207" x2="52.567" y2="132.29" gradientUnits="userSpaceOnUse">
<stop stop-color="#FF727F"/>
<stop offset="1" stop-color="#FF2A30"/>
</linearGradient>
</defs>
</svg>
