<?xml version="1.0" encoding="UTF-8" standalone="no"?><svg width="159" height="211" viewBox="0 0 159 211" fill="none" xmlns="http://www.w3.org/2000/svg">
<g clip-path="url(#clip0_1_48)">
<path d="M92.4041 0.496124C85.433 0.496124 78.7473 3.26541 73.818 8.19476C68.8886 13.1241 66.1193 19.8098 66.1193 26.7809H92.4041V0.496124Z" fill="url(#paint0_linear_1_48)"/>
<path d="M156.083 89.4964C157.755 85.5012 158.414 81.1547 158.001 76.8435C157.588 72.5323 156.116 68.39 153.716 64.7849C151.316 61.1797 148.062 58.2235 144.244 56.179C140.426 54.1344 136.162 53.065 131.831 53.0657H26.6921C22.3612 53.065 18.0972 54.1344 14.2793 56.179C10.4613 58.2235 7.20771 61.1797 4.80775 64.7849C2.40779 68.39 0.935836 72.5323 0.522765 76.8435C0.109694 81.1547 0.768305 85.5012 2.44004 89.4964V89.4964C2.86936 90.5303 55.8858 196.458 55.8858 196.458C58.0915 200.763 61.4427 204.377 65.5703 206.9C69.6978 209.423 74.4416 210.758 79.2792 210.758C84.1169 210.758 88.8607 209.423 92.9882 206.9C97.1158 204.377 100.467 200.763 102.673 196.458C102.673 196.458 155.654 90.5303 156.118 89.4964H156.083Z" fill="url(#paint1_linear_1_48)"/>
<path d="M131.831 131.92C131.831 124.949 129.062 118.263 124.133 113.334C119.203 108.405 112.518 105.635 105.547 105.635H52.9769C48.448 105.636 43.9961 106.806 40.0527 109.034C36.1094 111.261 32.8084 114.469 30.4699 118.348C28.1314 122.226 26.8347 126.643 26.7055 131.17C26.5762 135.697 27.6189 140.181 29.7324 144.186V144.186L55.8683 196.476C58.074 200.781 61.4252 204.394 65.5528 206.917C69.6803 209.44 74.4241 210.775 79.2617 210.775C84.0993 210.775 88.8431 209.44 92.9707 206.917C97.0982 204.394 100.449 200.781 102.655 196.476L128.8 144.186C130.797 140.407 131.838 136.195 131.831 131.92Z" fill="url(#paint2_linear_1_48)"/>
<path d="M79.2617 210.774C93.7784 210.774 105.547 199.006 105.547 184.49C105.547 169.973 93.7784 158.205 79.2617 158.205C64.745 158.205 52.9769 169.973 52.9769 184.49C52.9769 199.006 64.745 210.774 79.2617 210.774Z" fill="url(#paint3_linear_1_48)"/>
<path d="M98.9753 26.7809H33.2633C33.2633 33.7521 36.0326 40.4377 40.962 45.3671C45.8913 50.2964 52.577 53.0657 59.5481 53.0657H98.9753C105.946 53.0657 112.632 50.2964 117.561 45.3671C122.491 40.4377 125.26 33.7521 125.26 26.7809H98.9753Z" fill="url(#paint4_linear_1_48)"/>
<path d="M43.673 142.513C41.379 142.513 40.2321 141.378 40.2321 139.108V120.649C40.2321 118.379 41.379 117.244 43.673 117.244H50.6982C55.071 117.244 58.4641 118.343 60.8776 120.541C63.291 122.74 64.4977 125.846 64.4977 129.86C64.4977 133.875 63.291 136.993 60.8776 139.215C58.4641 141.414 55.071 142.513 50.6982 142.513H43.673ZM46.8271 137.172H50.2681C52.7771 137.172 54.6289 136.575 55.8237 135.38C57.0424 134.162 57.6517 132.322 57.6517 129.86C57.6517 127.399 57.0424 125.571 55.8237 124.376C54.6051 123.182 52.7532 122.584 50.2681 122.584H46.8271V137.172Z" fill="white"/>
<path d="M68.9621 142.836C67.839 142.836 67.0146 142.453 66.4889 141.689C65.9632 140.924 65.9632 139.968 66.4889 138.821L75.4138 119.609C75.8439 118.677 76.3696 117.996 76.9909 117.566C77.6122 117.136 78.341 116.921 79.1773 116.921C79.9898 116.921 80.7066 117.136 81.3279 117.566C81.9492 117.996 82.4749 118.677 82.905 119.609L91.8299 138.821C92.3795 139.992 92.4033 140.96 91.9015 141.724C91.3997 142.465 90.6112 142.836 89.5359 142.836C88.5801 142.836 87.8394 142.62 87.3137 142.19C86.8119 141.76 86.3578 141.067 85.9516 140.111L84.8047 137.387H73.5141L72.3672 140.111C71.9371 141.067 71.495 141.76 71.041 142.19C70.587 142.62 69.894 142.836 68.9621 142.836ZM79.1056 124.126L75.6647 132.334H82.6182L79.1773 124.126H79.1056Z" fill="white"/>
<path d="M106.673 142.907C104.116 142.907 101.87 142.37 99.9346 141.294C98.0229 140.195 96.5295 138.666 95.4542 136.706C94.3789 134.747 93.8413 132.465 93.8413 129.86C93.8413 127.232 94.367 124.95 95.4183 123.014C96.4936 121.055 97.999 119.538 99.9346 118.462C101.87 117.387 104.116 116.849 106.673 116.849C109.23 116.849 111.464 117.387 113.376 118.462C115.311 119.538 116.817 121.055 117.892 123.014C118.967 124.95 119.505 127.232 119.505 129.86C119.505 132.465 118.967 134.747 117.892 136.706C116.817 138.666 115.311 140.195 113.376 141.294C111.464 142.37 109.23 142.907 106.673 142.907ZM106.673 137.387C108.537 137.387 109.994 136.73 111.046 135.416C112.121 134.078 112.659 132.226 112.659 129.86C112.659 127.495 112.133 125.655 111.082 124.341C110.03 123.026 108.561 122.369 106.673 122.369C104.785 122.369 103.316 123.026 102.264 124.341C101.213 125.655 100.687 127.495 100.687 129.86C100.687 132.226 101.213 134.078 102.264 135.416C103.316 136.73 104.785 137.387 106.673 137.387Z" fill="white"/>
<path d="M28.49 112.574C27.6441 112.586 26.7675 112.513 25.86 112.356C24.9658 112.185 24.1938 111.942 23.5441 111.627C23.163 111.449 22.8904 111.206 22.7265 110.898C22.5626 110.59 22.4954 110.274 22.5251 109.949C22.5543 109.61 22.6613 109.313 22.8461 109.056C23.0303 108.786 23.2804 108.606 23.5962 108.517C23.9115 108.414 24.2736 108.452 24.6824 108.629C25.2192 108.89 25.8229 109.086 26.4937 109.218C27.1639 109.335 27.7902 109.39 28.3726 109.382C29.2877 109.37 29.9212 109.241 30.2729 108.997C30.6379 108.738 30.8137 108.425 30.8003 108.059C30.7883 107.735 30.647 107.476 30.3763 107.282C30.1195 107.088 29.6626 106.925 29.0057 106.793L26.5528 106.299C23.897 105.757 22.5282 104.373 22.4463 102.147C22.4105 101.174 22.6357 100.318 23.1218 99.5785C23.6218 98.8385 24.329 98.2649 25.2435 97.8575C26.1575 97.4361 27.2315 97.2169 28.4656 97.1999C29.1867 97.19 29.9177 97.2645 30.6589 97.4235C31.4133 97.5682 32.0669 97.7989 32.6196 98.1155C33.0439 98.3352 33.3187 98.6416 33.4442 99.0346C33.5691 99.4136 33.5689 99.7872 33.4438 100.155C33.3186 100.524 33.0788 100.795 32.7245 100.969C32.3841 101.143 31.9393 101.121 31.3903 100.903C30.9676 100.725 30.5051 100.598 30.0028 100.52C29.5 100.428 29.0128 100.386 28.5414 100.392C27.7649 100.403 27.1738 100.552 26.7682 100.84C26.3621 101.113 26.1671 101.468 26.1831 101.905C26.1945 102.215 26.3286 102.467 26.5855 102.661C26.8423 102.855 27.2923 103.018 27.9353 103.15L30.3674 103.645C33.0648 104.186 34.4531 105.534 34.5324 107.69C34.5682 108.662 34.3428 109.511 33.8561 110.237C33.3695 110.963 32.669 111.529 31.7544 111.937C30.8399 112.344 29.7518 112.556 28.49 112.574Z" fill="url(#paint5_linear_1_48)"/>
<path d="M41.5425 112.394C39.9895 112.416 38.8252 112.065 38.0494 111.343C37.2737 110.62 36.8587 109.519 36.8043 108.04L36.6775 104.594L35.9704 104.604C35.0414 104.617 34.5597 104.158 34.5255 103.228C34.4919 102.312 34.9395 101.848 35.8686 101.835L36.5757 101.825L36.5275 100.515C36.5047 99.8948 36.6468 99.4206 36.9538 99.0921C37.2608 98.7636 37.7124 98.5952 38.3087 98.587C39.5428 98.57 40.1831 99.1957 40.2298 100.464L40.278 101.774L41.9835 101.751C42.9264 101.738 43.4147 102.189 43.4483 103.105C43.4825 104.035 43.0282 104.507 42.0853 104.52L40.3798 104.543L40.5018 107.862C40.5391 108.876 41.0639 109.377 42.0761 109.363C42.2702 109.36 42.4567 109.336 42.6354 109.292C42.8141 109.247 42.9797 109.223 43.1322 109.221C43.3535 109.204 43.5364 109.272 43.6808 109.425C43.8246 109.564 43.9061 109.894 43.9253 110.416C43.9408 110.839 43.8916 111.199 43.7777 111.496C43.6633 111.78 43.449 111.987 43.1347 112.118C42.9432 112.192 42.6818 112.252 42.3506 112.298C42.0198 112.359 41.7505 112.391 41.5425 112.394Z" fill="url(#paint6_linear_1_48)"/>
<path d="M46.9234 112.278C45.6615 112.295 45.0073 111.67 44.9607 110.402L44.7034 103.405C44.6573 102.151 45.2374 101.516 46.4437 101.499C47.0122 101.491 47.455 101.647 47.7719 101.967C48.1028 102.287 48.2793 102.75 48.3016 103.356L48.304 103.419C48.5174 102.81 48.8811 102.326 49.3951 101.966C49.909 101.607 50.5262 101.415 51.2468 101.391C51.6484 101.371 51.9504 101.473 52.1528 101.695C52.3685 101.904 52.4942 102.304 52.5299 102.896C52.5485 103.403 52.4593 103.806 52.2622 104.105C52.0651 104.404 51.6764 104.585 51.0961 104.65L50.6193 104.698C49.8869 104.779 49.3609 104.998 49.041 105.355C48.7207 105.697 48.573 106.207 48.5978 106.883L48.7253 110.35C48.772 111.618 48.1713 112.261 46.9234 112.278Z" fill="url(#paint7_linear_1_48)"/>
<path d="M57.5056 112.174C56.7153 112.185 56.0096 112.047 55.3886 111.759C54.7815 111.472 54.2953 111.077 53.9299 110.574C53.578 110.057 53.3898 109.468 53.3655 108.806C53.338 108.059 53.5104 107.464 53.8826 107.022C54.2542 106.566 54.8665 106.24 55.7195 106.045C56.5719 105.836 57.7122 105.722 59.1405 105.702L59.9308 105.691L59.9199 105.395C59.9013 104.888 59.7563 104.53 59.4851 104.323C59.2277 104.115 58.7871 104.015 58.1631 104.024C57.8165 104.028 57.4367 104.076 57.0238 104.166C56.6243 104.242 56.1716 104.382 55.6659 104.587C55.2145 104.762 54.8329 104.76 54.5211 104.581C54.2093 104.402 53.9987 104.144 53.8892 103.807C53.793 103.456 53.815 103.111 53.9551 102.77C54.1085 102.416 54.4109 102.151 54.8623 101.975C55.5191 101.727 56.1232 101.556 56.6747 101.464C57.2396 101.358 57.7578 101.301 58.2292 101.295C59.9347 101.271 61.2103 101.627 62.0559 102.363C62.9153 103.098 63.3745 104.269 63.4336 105.875L63.5906 110.145C63.6373 111.413 63.0921 112.055 61.9551 112.071C60.8735 112.086 60.2773 111.53 60.1666 110.404C59.9921 110.942 59.6749 111.369 59.2148 111.686C58.7548 112.002 58.1851 112.165 57.5056 112.174ZM58.2474 109.711C58.7605 109.704 59.1841 109.529 59.5183 109.186C59.8664 108.843 60.0303 108.397 60.0101 107.847L59.9961 107.467L59.2057 107.477C58.3876 107.489 57.7878 107.589 57.4063 107.777C57.0382 107.951 56.8611 108.229 56.8751 108.609C56.887 108.933 57.0078 109.199 57.2374 109.408C57.4809 109.616 57.8176 109.717 58.2474 109.711Z" fill="url(#paint8_linear_1_48)"/>
<path d="M70.1182 111.959C69.1476 111.972 68.4436 111.502 68.0062 110.55L64.9218 103.634C64.6207 102.99 64.5933 102.434 64.8396 101.965C65.0855 101.482 65.5828 101.236 66.3315 101.225C66.7614 101.219 67.1119 101.32 67.3831 101.528C67.6677 101.722 67.9387 102.113 68.1962 102.701L70.1375 107.39L71.8421 102.249C72.0925 101.513 72.5782 101.139 73.2992 101.129C73.7013 101.124 74.0236 101.211 74.2661 101.391C74.5085 101.571 74.7058 101.843 74.858 102.208L76.9635 107.402L78.6119 102.431C78.7868 101.907 79.0232 101.544 79.321 101.343C79.6188 101.141 79.941 101.038 80.2877 101.033C80.9949 101.024 81.4615 101.264 81.6876 101.754C81.9132 102.23 81.906 102.787 81.6659 103.425L79.1122 110.376C78.7458 111.353 78.0842 111.849 77.1275 111.862C76.143 111.876 75.4387 111.399 75.0147 110.432L73.3757 106.606L72.0805 110.43C71.7291 111.436 71.075 111.945 70.1182 111.959Z" fill="url(#paint9_linear_1_48)"/>
<path d="M90.4647 111.721C89.7852 111.73 89.1558 111.591 88.5764 111.303C88.0109 111.014 87.5804 110.626 87.2849 110.136C87.2129 111.195 86.6361 111.731 85.5545 111.746C84.3343 111.763 83.7009 111.137 83.6542 109.869L83.2322 98.3916C83.1855 97.1234 83.7723 96.4809 84.9925 96.4641C85.5888 96.4559 86.0523 96.6116 86.3831 96.9313C86.7278 97.2509 86.9116 97.7206 86.9344 98.3406L87.0829 102.378C87.3575 101.923 87.7602 101.558 88.2912 101.283C88.836 101.007 89.4273 100.865 90.0651 100.856C90.9525 100.844 91.7371 101.052 92.4187 101.48C93.1142 101.907 93.6642 102.527 94.0686 103.339C94.4725 104.137 94.6952 105.1 94.7367 106.227C94.7776 107.34 94.619 108.308 94.2608 109.131C93.9165 109.953 93.4126 110.588 92.7492 111.034C92.0997 111.48 91.3382 111.709 90.4647 111.721ZM89.1981 108.968C89.7527 108.96 90.2025 108.743 90.5475 108.315C90.8925 107.887 91.0478 107.208 91.0136 106.278C90.9789 105.334 90.7738 104.66 90.3982 104.257C90.0222 103.839 89.5568 103.634 89.0022 103.641C88.4337 103.649 87.9769 103.867 87.632 104.295C87.2865 104.708 87.1311 105.387 87.1658 106.331C87.2 107.261 87.4052 107.935 87.7812 108.353C88.1573 108.771 88.6296 108.976 89.1981 108.968Z" fill="url(#paint10_linear_1_48)"/>
<path d="M102.198 111.559C100.95 111.576 99.8602 111.373 98.929 110.949C98.0111 110.51 97.2945 109.886 96.7791 109.075C96.2638 108.264 95.9856 107.302 95.9447 106.189C95.9058 105.132 96.1001 104.192 96.5277 103.369C96.9691 102.545 97.5836 101.902 98.3712 101.44C99.1722 100.964 100.093 100.718 101.133 100.704C102.159 100.69 103.054 100.896 103.819 101.323C104.598 101.749 105.203 102.368 105.635 103.18C106.081 103.977 106.324 104.919 106.363 106.004C106.384 106.553 106.075 106.832 105.437 106.841L99.5093 106.923C99.659 107.597 99.9541 108.08 100.395 108.37C100.836 108.66 101.437 108.799 102.2 108.789C102.491 108.785 102.836 108.745 103.236 108.669C103.636 108.593 104.013 108.475 104.367 108.315C104.805 108.14 105.179 108.135 105.491 108.299C105.801 108.45 106.012 108.694 106.121 109.031C106.244 109.354 106.242 109.692 106.117 110.046C106.004 110.386 105.757 110.65 105.376 110.839C104.899 111.085 104.386 111.261 103.835 111.368C103.298 111.488 102.752 111.552 102.198 111.559ZM101.388 103.133C100.834 103.14 100.382 103.316 100.034 103.659C99.7001 104.002 99.4964 104.498 99.4232 105.147L103.292 105.094C103.226 104.432 103.027 103.942 102.697 103.622C102.379 103.288 101.943 103.125 101.388 103.133Z" fill="url(#paint11_linear_1_48)"/>
<path d="M110.052 111.409C108.79 111.426 108.136 110.801 108.089 109.533L107.832 102.536C107.786 101.282 108.366 100.647 109.572 100.63C110.141 100.622 110.583 100.778 110.9 101.098C111.231 101.418 111.408 101.881 111.43 102.487L111.432 102.55C111.646 101.941 112.009 101.457 112.523 101.097C113.037 100.738 113.655 100.546 114.375 100.522C114.777 100.502 115.079 100.604 115.281 100.827C115.497 101.035 115.623 101.435 115.658 102.027C115.677 102.534 115.588 102.937 115.391 103.236C115.193 103.535 114.805 103.716 114.224 103.781L113.748 103.829C113.015 103.91 112.489 104.129 112.169 104.486C111.849 104.828 111.701 105.338 111.726 106.014L111.854 109.481C111.9 110.749 111.3 111.392 110.052 111.409Z" fill="url(#paint12_linear_1_48)"/>
<path d="M119.07 111.285C117.808 111.302 117.154 110.677 117.107 109.408L116.85 102.412C116.804 101.158 117.384 100.523 118.59 100.506C119.159 100.498 119.602 100.654 119.919 100.974C120.25 101.294 120.426 101.757 120.448 102.363L120.451 102.426C120.664 101.817 121.028 101.332 121.542 100.973C122.056 100.613 122.673 100.422 123.393 100.398C123.795 100.378 124.097 100.48 124.3 100.702C124.515 100.911 124.641 101.311 124.677 101.903C124.695 102.41 124.606 102.813 124.409 103.112C124.212 103.41 123.823 103.592 123.243 103.656L122.766 103.705C122.034 103.786 121.508 104.005 121.188 104.361C120.867 104.704 120.72 105.214 120.745 105.89L120.872 109.357C120.919 110.625 120.318 111.268 119.07 111.285Z" fill="url(#paint13_linear_1_48)"/>
<path d="M129.94 114.942C129.51 114.948 129.152 114.84 128.866 114.618C128.595 114.396 128.424 114.103 128.355 113.737C128.287 113.385 128.335 112.997 128.5 112.572L129.475 110.232L125.976 102.794C125.675 102.164 125.655 101.607 125.915 101.124C126.174 100.641 126.706 100.394 127.51 100.383C127.94 100.377 128.298 100.478 128.583 100.686C128.867 100.879 129.132 101.27 129.375 101.859L131.291 106.422L132.952 101.789C133.152 101.208 133.388 100.817 133.658 100.616C133.941 100.4 134.326 100.289 134.811 100.283C135.421 100.274 135.86 100.508 136.127 100.984C136.408 101.459 136.422 102.016 136.168 102.654L131.843 113.499C131.613 114.052 131.35 114.429 131.052 114.63C130.768 114.832 130.397 114.935 129.94 114.942Z" fill="url(#paint14_linear_1_48)"/>
<path d="M18.7835 80.208C18.7835 82.1443 18.5774 86.3697 16.6411 86.3697C14.7048 86.3697 11.7715 82.1443 11.7715 80.208C11.7715 78.2717 13.3412 76.702 15.2775 76.702C17.2138 76.702 18.7835 78.2717 18.7835 80.208Z" fill="url(#paint15_radial_1_48)"/>
<path d="M31.1586 76.7356C31.1586 78.6719 30.9525 82.8973 29.0162 82.8973C27.0798 82.8973 24.1465 78.6719 24.1465 76.7356C24.1465 74.7993 25.7162 73.2296 27.6525 73.2296C29.5889 73.2296 31.1586 74.7993 31.1586 76.7356Z" fill="url(#paint16_radial_1_48)"/>
<path d="M120.41 66.2502C119.325 67.8537 116.786 71.2374 115.182 70.152C113.579 69.0667 113.518 63.9233 114.603 62.3197C115.689 60.7162 117.869 60.2961 119.472 61.3815C121.076 62.4669 121.496 64.6466 120.41 66.2502Z" fill="url(#paint17_radial_1_48)"/>
<path d="M141.991 66.8202C140.906 68.4238 138.367 71.8074 136.763 70.7221C135.16 69.6367 135.099 64.4933 136.184 62.8898C137.27 61.2862 139.449 60.8662 141.053 61.9515C142.656 63.0369 143.077 65.2167 141.991 66.8202Z" fill="url(#paint18_radial_1_48)"/>
<path d="M147.798 85.1974C146.713 86.801 144.174 90.1846 142.57 89.0993C140.967 88.0139 140.906 82.8705 141.991 81.267C143.077 79.6634 145.256 79.2434 146.86 80.3287C148.463 81.4141 148.883 83.5939 147.798 85.1974Z" fill="url(#paint19_radial_1_48)"/>
<path d="M129.022 81.8863C127.936 83.4898 125.397 86.8735 123.794 85.7881C122.19 84.7028 122.129 79.5593 123.215 77.9558C124.3 76.3523 126.48 75.9322 128.083 77.0176C129.687 78.1029 130.107 80.2827 129.022 81.8863Z" fill="url(#paint20_radial_1_48)"/>
<path d="M134.828 96.9519C133.743 98.5555 131.204 101.939 129.6 100.854C127.997 99.7684 127.936 94.625 129.022 93.0215C130.107 91.4179 132.287 90.9979 133.89 92.0832C135.494 93.1686 135.914 95.3484 134.828 96.9519Z" fill="url(#paint21_radial_1_48)"/>
<path d="M110.245 88.3698C109.159 89.9733 106.62 93.357 105.017 92.2716C103.413 91.1862 103.352 86.0428 104.438 84.4393C105.523 82.8358 107.703 82.4157 109.306 83.5011C110.91 84.5864 111.33 86.7662 110.245 88.3698Z" fill="url(#paint22_radial_1_48)"/>
<path d="M112.259 159.658C111.174 161.261 108.635 164.645 107.031 163.56C105.427 162.474 105.367 157.331 106.452 155.727C107.537 154.124 109.717 153.704 111.321 154.789C112.924 155.874 113.344 158.054 112.259 159.658Z" fill="url(#paint23_radial_1_48)"/>
<path d="M90.7818 177.903C89.6964 179.506 87.1573 182.89 85.5537 181.805C83.9502 180.719 83.8895 175.576 84.9748 173.972C86.0602 172.369 88.24 171.949 89.8435 173.034C91.4471 174.119 91.8671 176.299 90.7818 177.903Z" fill="url(#paint24_radial_1_48)"/>
<path d="M24.1465 62.5889C24.1465 64.5252 23.9404 68.7506 22.0041 68.7506C20.0678 68.7506 17.1345 64.5252 17.1345 62.5889C17.1345 60.6526 18.7042 59.0829 20.6405 59.0829C22.5768 59.0829 24.1465 60.6526 24.1465 62.5889Z" fill="url(#paint25_radial_1_48)"/>
<path d="M41.1898 68.8906C41.1898 70.8269 40.9837 75.0523 39.0474 75.0523C37.1111 75.0523 34.1778 70.8269 34.1778 68.8906C34.1778 66.9543 35.7475 65.3846 37.6838 65.3846C39.6201 65.3846 41.1898 66.9543 41.1898 68.8906Z" fill="url(#paint26_radial_1_48)"/>
<path d="M53.2788 71.2055C53.2788 73.1418 53.0727 77.3673 51.1364 77.3673C49.2001 77.3673 46.2668 73.1418 46.2668 71.2055C46.2668 69.2692 47.8365 67.6995 49.7728 67.6995C51.7091 67.6995 53.2788 69.2692 53.2788 71.2055Z" fill="url(#paint27_radial_1_48)"/>
<path d="M80.4113 71.305C80.0333 73.2041 79.0064 77.308 77.1073 76.9301C75.2082 76.5521 73.1561 71.8354 73.5341 69.9363C73.912 68.0373 75.7579 66.8041 77.657 67.1821C79.5561 67.56 80.7892 69.4059 80.4113 71.305Z" fill="url(#paint28_radial_1_48)"/>
<path d="M82.7237 195.024C82.3458 196.923 81.3189 201.027 79.4198 200.649C77.5207 200.271 75.4686 195.555 75.8465 193.656C76.2245 191.757 78.0704 190.523 79.9695 190.901C81.8686 191.279 83.1017 193.125 82.7237 195.024Z" fill="url(#paint29_radial_1_48)"/>
<path d="M68.3899 89.6822C68.012 91.5813 66.9851 95.6852 65.086 95.3072C63.1869 94.9293 61.1348 90.2126 61.5127 88.3135C61.8907 86.4144 63.7366 85.1813 65.6357 85.5593C67.5348 85.9372 68.7679 87.7831 68.3899 89.6822Z" fill="url(#paint30_radial_1_48)"/>
<path d="M66.5029 64.0761C66.1249 65.9752 65.098 70.0791 63.1989 69.7012C61.2999 69.3232 59.2477 64.6065 59.6257 62.7074C60.0036 60.8083 61.8495 59.5752 63.7486 59.9532C65.6477 60.3311 66.8808 62.177 66.5029 64.0761Z" fill="url(#paint31_radial_1_48)"/>
<path d="M98.4568 67.4272C97.9089 69.2844 96.5156 73.2788 94.6584 72.7309C92.8012 72.183 91.1834 67.3002 91.7313 65.443C92.2793 63.5858 94.229 62.5245 96.0862 63.0724C97.9434 63.6203 99.0047 65.57 98.4568 67.4272Z" fill="url(#paint32_radial_1_48)"/>
<path d="M93.7263 86.8827C93.1784 88.7399 91.7851 92.7343 89.9279 92.1864C88.0707 91.6385 86.4529 86.7558 87.0008 84.8986C87.5487 83.0414 89.4984 81.98 91.3556 82.5279C93.2128 83.0758 94.2742 85.0256 93.7263 86.8827Z" fill="url(#paint33_radial_1_48)"/>
<path d="M44.6959 85.0419C44.6959 86.9782 44.4898 91.2036 42.5535 91.2036C40.6171 91.2036 37.6838 86.9782 37.6838 85.0419C37.6838 83.1055 39.2535 81.5358 41.1898 81.5358C43.1262 81.5358 44.6959 83.1055 44.6959 85.0419Z" fill="url(#paint34_radial_1_48)"/>
<path d="M71.7042 175.709C71.7042 177.646 71.4981 181.871 69.5618 181.871C67.6255 181.871 64.6921 177.646 64.6921 175.709C64.6921 173.773 66.2618 172.203 68.1982 172.203C70.1345 172.203 71.7042 173.773 71.7042 175.709Z" fill="url(#paint35_radial_1_48)"/>
<path d="M17.1345 96.2987C17.1345 98.235 16.9284 102.46 14.9921 102.46C13.0557 102.46 10.1224 98.235 10.1224 96.2987C10.1224 94.3623 11.6921 92.7926 13.6284 92.7926C15.5648 92.7926 17.1345 94.3623 17.1345 96.2987Z" fill="url(#paint36_radial_1_48)"/>
<path d="M44.6959 154.429C44.6959 156.365 44.4898 160.59 42.5535 160.59C40.6171 160.59 37.6838 156.365 37.6838 154.429C37.6838 152.492 39.2535 150.923 41.1898 150.923C43.1262 150.923 44.6959 152.492 44.6959 154.429Z" fill="url(#paint37_radial_1_48)"/>
<path d="M44.6959 154.429C44.6959 156.365 44.4898 160.59 42.5535 160.59C40.6171 160.59 37.6838 156.365 37.6838 154.429C37.6838 152.492 39.2535 150.923 41.1898 150.923C43.1262 150.923 44.6959 152.492 44.6959 154.429Z" fill="url(#paint38_radial_1_48)"/>
<path d="M44.6959 154.429C44.6959 156.365 44.4898 160.59 42.5535 160.59C40.6171 160.59 37.6838 156.365 37.6838 154.429C37.6838 152.492 39.2535 150.923 41.1898 150.923C43.1262 150.923 44.6959 152.492 44.6959 154.429Z" fill="#FF5D5D"/>
</g>
<defs>
<linearGradient id="paint0_linear_1_48" x1="79.2617" y1="1.81036" x2="79.2617" y2="27.4994" gradientUnits="userSpaceOnUse">
<stop stop-color="#8CCA6A"/>
<stop offset="1" stop-color="#36A866"/>
</linearGradient>
<linearGradient id="paint1_linear_1_48" x1="79.2617" y1="50.7702" x2="79.2617" y2="131" gradientUnits="userSpaceOnUse">
<stop stop-color="#FF949A"/>
<stop offset="1" stop-color="#FF3F45"/>
</linearGradient>
<linearGradient id="paint2_linear_1_48" x1="79.2617" y1="105.635" x2="79.2617" y2="210.774" gradientUnits="userSpaceOnUse">
<stop stop-color="#FF727F"/>
<stop offset="1" stop-color="#FF2A30"/>
</linearGradient>
<linearGradient id="paint3_linear_1_48" x1="79.2617" y1="158.284" x2="79.2617" y2="210.853" gradientUnits="userSpaceOnUse">
<stop stop-color="#FF727F"/>
<stop offset="1" stop-color="#FF2A30"/>
</linearGradient>
<linearGradient id="paint4_linear_1_48" x1="79.2617" y1="28.0952" x2="79.2617" y2="53.7842" gradientUnits="userSpaceOnUse">
<stop stop-color="#8CCA6A"/>
<stop offset="1" stop-color="#36A866"/>
</linearGradient>
<linearGradient id="paint5_linear_1_48" x1="79.4356" y1="96.4401" x2="79.733" y2="118.048" gradientUnits="userSpaceOnUse">
<stop stop-color="white"/>
<stop offset="1" stop-color="white" stop-opacity="0.87"/>
</linearGradient>
<linearGradient id="paint6_linear_1_48" x1="79.4356" y1="96.4401" x2="79.733" y2="118.048" gradientUnits="userSpaceOnUse">
<stop stop-color="white"/>
<stop offset="1" stop-color="white" stop-opacity="0.87"/>
</linearGradient>
<linearGradient id="paint7_linear_1_48" x1="79.4356" y1="96.4401" x2="79.733" y2="118.048" gradientUnits="userSpaceOnUse">
<stop stop-color="white"/>
<stop offset="1" stop-color="white" stop-opacity="0.87"/>
</linearGradient>
<linearGradient id="paint8_linear_1_48" x1="79.4356" y1="96.4401" x2="79.733" y2="118.048" gradientUnits="userSpaceOnUse">
<stop stop-color="white"/>
<stop offset="1" stop-color="white" stop-opacity="0.87"/>
</linearGradient>
<linearGradient id="paint9_linear_1_48" x1="79.4356" y1="96.4401" x2="79.733" y2="118.048" gradientUnits="userSpaceOnUse">
<stop stop-color="white"/>
<stop offset="1" stop-color="white" stop-opacity="0.87"/>
</linearGradient>
<linearGradient id="paint10_linear_1_48" x1="79.4356" y1="96.4401" x2="79.733" y2="118.048" gradientUnits="userSpaceOnUse">
<stop stop-color="white"/>
<stop offset="1" stop-color="white" stop-opacity="0.87"/>
</linearGradient>
<linearGradient id="paint11_linear_1_48" x1="79.4356" y1="96.4401" x2="79.733" y2="118.048" gradientUnits="userSpaceOnUse">
<stop stop-color="white"/>
<stop offset="1" stop-color="white" stop-opacity="0.87"/>
</linearGradient>
<linearGradient id="paint12_linear_1_48" x1="79.4356" y1="96.4401" x2="79.733" y2="118.048" gradientUnits="userSpaceOnUse">
<stop stop-color="white"/>
<stop offset="1" stop-color="white" stop-opacity="0.87"/>
</linearGradient>
<linearGradient id="paint13_linear_1_48" x1="79.4356" y1="96.4401" x2="79.733" y2="118.048" gradientUnits="userSpaceOnUse">
<stop stop-color="white"/>
<stop offset="1" stop-color="white" stop-opacity="0.87"/>
</linearGradient>
<linearGradient id="paint14_linear_1_48" x1="79.4356" y1="96.4401" x2="79.733" y2="118.048" gradientUnits="userSpaceOnUse">
<stop stop-color="white"/>
<stop offset="1" stop-color="white" stop-opacity="0.87"/>
</linearGradient>
<radialGradient id="paint15_radial_1_48" cx="0" cy="0" r="1" gradientUnits="userSpaceOnUse" gradientTransform="translate(41.1898 155.605) rotate(90) scale(4.68213 3.50603)">
<stop stop-color="#D9D9D9"/>
<stop offset="1" stop-color="#FF5C5C"/>
</radialGradient>
<radialGradient id="paint16_radial_1_48" cx="0" cy="0" r="1" gradientUnits="userSpaceOnUse" gradientTransform="translate(41.1898 155.605) rotate(90) scale(4.68213 3.50603)">
<stop stop-color="#D9D9D9"/>
<stop offset="1" stop-color="#FF5C5C"/>
</radialGradient>
<radialGradient id="paint17_radial_1_48" cx="0" cy="0" r="1" gradientUnits="userSpaceOnUse" gradientTransform="translate(41.1898 155.605) rotate(90) scale(4.68213 3.50603)">
<stop stop-color="#D9D9D9"/>
<stop offset="1" stop-color="#FF5C5C"/>
</radialGradient>
<radialGradient id="paint18_radial_1_48" cx="0" cy="0" r="1" gradientUnits="userSpaceOnUse" gradientTransform="translate(41.1898 155.605) rotate(90) scale(4.68213 3.50603)">
<stop stop-color="#D9D9D9"/>
<stop offset="1" stop-color="#FF5C5C"/>
</radialGradient>
<radialGradient id="paint19_radial_1_48" cx="0" cy="0" r="1" gradientUnits="userSpaceOnUse" gradientTransform="translate(41.1898 155.605) rotate(90) scale(4.68213 3.50603)">
<stop stop-color="#D9D9D9"/>
<stop offset="1" stop-color="#FF5C5C"/>
</radialGradient>
<radialGradient id="paint20_radial_1_48" cx="0" cy="0" r="1" gradientUnits="userSpaceOnUse" gradientTransform="translate(41.1898 155.605) rotate(90) scale(4.68213 3.50603)">
<stop stop-color="#D9D9D9"/>
<stop offset="1" stop-color="#FF5C5C"/>
</radialGradient>
<radialGradient id="paint21_radial_1_48" cx="0" cy="0" r="1" gradientUnits="userSpaceOnUse" gradientTransform="translate(41.1898 155.605) rotate(90) scale(4.68213 3.50603)">
<stop stop-color="#D9D9D9"/>
<stop offset="1" stop-color="#FF5C5C"/>
</radialGradient>
<radialGradient id="paint22_radial_1_48" cx="0" cy="0" r="1" gradientUnits="userSpaceOnUse" gradientTransform="translate(41.1898 155.605) rotate(90) scale(4.68213 3.50603)">
<stop stop-color="#D9D9D9"/>
<stop offset="1" stop-color="#FF5C5C"/>
</radialGradient>
<radialGradient id="paint23_radial_1_48" cx="0" cy="0" r="1" gradientUnits="userSpaceOnUse" gradientTransform="translate(41.1898 155.605) rotate(90) scale(4.68213 3.50603)">
<stop stop-color="#D9D9D9"/>
<stop offset="1" stop-color="#FF5C5C"/>
</radialGradient>
<radialGradient id="paint24_radial_1_48" cx="0" cy="0" r="1" gradientUnits="userSpaceOnUse" gradientTransform="translate(41.1898 155.605) rotate(90) scale(4.68213 3.50603)">
<stop stop-color="#D9D9D9"/>
<stop offset="1" stop-color="#FF5C5C"/>
</radialGradient>
<radialGradient id="paint25_radial_1_48" cx="0" cy="0" r="1" gradientUnits="userSpaceOnUse" gradientTransform="translate(41.1898 155.605) rotate(90) scale(4.68213 3.50603)">
<stop stop-color="#D9D9D9"/>
<stop offset="1" stop-color="#FF5C5C"/>
</radialGradient>
<radialGradient id="paint26_radial_1_48" cx="0" cy="0" r="1" gradientUnits="userSpaceOnUse" gradientTransform="translate(41.1898 155.605) rotate(90) scale(4.68213 3.50603)">
<stop stop-color="#D9D9D9"/>
<stop offset="1" stop-color="#FF5C5C"/>
</radialGradient>
<radialGradient id="paint27_radial_1_48" cx="0" cy="0" r="1" gradientUnits="userSpaceOnUse" gradientTransform="translate(41.1898 155.605) rotate(90) scale(4.68213 3.50603)">
<stop stop-color="#D9D9D9"/>
<stop offset="1" stop-color="#FF5C5C"/>
</radialGradient>
<radialGradient id="paint28_radial_1_48" cx="0" cy="0" r="1" gradientUnits="userSpaceOnUse" gradientTransform="translate(41.1898 155.605) rotate(90) scale(4.68213 3.50603)">
<stop stop-color="#D9D9D9"/>
<stop offset="1" stop-color="#FF5C5C"/>
</radialGradient>
<radialGradient id="paint29_radial_1_48" cx="0" cy="0" r="1" gradientUnits="userSpaceOnUse" gradientTransform="translate(41.1898 155.605) rotate(90) scale(4.68213 3.50603)">
<stop stop-color="#D9D9D9"/>
<stop offset="1" stop-color="#FF5C5C"/>
</radialGradient>
<radialGradient id="paint30_radial_1_48" cx="0" cy="0" r="1" gradientUnits="userSpaceOnUse" gradientTransform="translate(41.1898 155.605) rotate(90) scale(4.68213 3.50603)">
<stop stop-color="#D9D9D9"/>
<stop offset="1" stop-color="#FF5C5C"/>
</radialGradient>
<radialGradient id="paint31_radial_1_48" cx="0" cy="0" r="1" gradientUnits="userSpaceOnUse" gradientTransform="translate(41.1898 155.605) rotate(90) scale(4.68213 3.50603)">
<stop stop-color="#D9D9D9"/>
<stop offset="1" stop-color="#FF5C5C"/>
</radialGradient>
<radialGradient id="paint32_radial_1_48" cx="0" cy="0" r="1" gradientUnits="userSpaceOnUse" gradientTransform="translate(41.1898 155.605) rotate(90) scale(4.68213 3.50603)">
<stop stop-color="#D9D9D9"/>
<stop offset="1" stop-color="#FF5C5C"/>
</radialGradient>
<radialGradient id="paint33_radial_1_48" cx="0" cy="0" r="1" gradientUnits="userSpaceOnUse" gradientTransform="translate(41.1898 155.605) rotate(90) scale(4.68213 3.50603)">
<stop stop-color="#D9D9D9"/>
<stop offset="1" stop-color="#FF5C5C"/>
</radialGradient>
<radialGradient id="paint34_radial_1_48" cx="0" cy="0" r="1" gradientUnits="userSpaceOnUse" gradientTransform="translate(41.1898 155.605) rotate(90) scale(4.68213 3.50603)">
<stop stop-color="#D9D9D9"/>
<stop offset="1" stop-color="#FF5C5C"/>
</radialGradient>
<radialGradient id="paint35_radial_1_48" cx="0" cy="0" r="1" gradientUnits="userSpaceOnUse" gradientTransform="translate(41.1898 155.605) rotate(90) scale(4.68213 3.50603)">
<stop stop-color="#D9D9D9"/>
<stop offset="1" stop-color="#FF5C5C"/>
</radialGradient>
<radialGradient id="paint36_radial_1_48" cx="0" cy="0" r="1" gradientUnits="userSpaceOnUse" gradientTransform="translate(41.1898 155.605) rotate(90) scale(4.68213 3.50603)">
<stop stop-color="#D9D9D9"/>
<stop offset="1" stop-color="#FF5C5C"/>
</radialGradient>
<radialGradient id="paint37_radial_1_48" cx="0" cy="0" r="1" gradientUnits="userSpaceOnUse" gradientTransform="translate(41.1898 155.605) rotate(90) scale(4.68213 3.50603)">
<stop stop-color="#D9D9D9"/>
<stop offset="1" stop-color="#FF5C5C"/>
</radialGradient>
<radialGradient id="paint38_radial_1_48" cx="0" cy="0" r="1" gradientUnits="userSpaceOnUse" gradientTransform="translate(41.1898 155.605) rotate(90) scale(4.68213 3.50603)">
<stop stop-color="#D9D9D9"/>
<stop offset="1" stop-color="#FF5C5C"/>
</radialGradient>
<clipPath id="clip0_1_48">
<rect width="157.709" height="210.278" fill="white" transform="translate(0.407349 0.496124)"/>
</clipPath>
</defs>
</svg>
